<svg xmlns="http://www.w3.org/2000/svg" width="768" height="768" viewBox="0 0 768 768" version="1.1"><path d="M 229.500 469.972 L 56.500 556.500 56.244 634.750 C 56.103 677.788, 56.212 713, 56.487 713 C 56.761 713, 167.126 657.361, 301.743 589.358 C 436.359 521.354, 549.044 464.504, 552.152 463.024 L 557.804 460.332 480.152 421.888 L 402.500 383.444 229.500 469.972" stroke="none" fill="#bab8ba" fill-rule="evenodd"/><path d="M 479.500 344.720 L 402.500 383.329 479.997 421.757 L 557.495 460.185 563.997 457.005 C 567.574 455.256, 602.196 437.819, 640.936 418.257 L 711.373 382.689 634.936 344.399 C 592.896 323.340, 558.050 306.110, 557.500 306.110 C 556.950 306.110, 521.850 323.484, 479.500 344.720" stroke="none" fill="#239e8e" fill-rule="evenodd"/><path d="M 56.046 132.167 L 56.093 210.500 229.349 296.850 L 402.605 383.200 479.975 344.513 L 557.345 305.825 539.422 296.612 C 529.565 291.545, 417.135 234.997, 289.577 170.949 C 162.019 106.902, 57.282 54.350, 56.827 54.167 C 56.372 53.983, 56.021 89.083, 56.046 132.167" stroke="none" fill="#30d8c4" fill-rule="evenodd"/></svg>